<?xml version="1.0" encoding="utf-8"?>
<!-- Generator: Adobe Illustrator 25.1.0, SVG Export Plug-In . SVG Version: 6.00 Build 0)  -->
<svg version="1.1" id="Vrstva_1" xmlns="http://www.w3.org/2000/svg" xmlns:xlink="http://www.w3.org/1999/xlink" x="0px" y="0px"
	 viewBox="0 0 1263.2 189.1" style="enable-background:new 0 0 1263.2 189.1;" xml:space="preserve">
<style type="text/css">
	.st0{fill:url(#SVGID_1_);}
	.st1{fill:url(#SVGID_2_);}
	.st2{fill:url(#SVGID_3_);}
</style>
<g>
	<linearGradient id="SVGID_1_" gradientUnits="userSpaceOnUse" x1="1.043" y1="13.6137" x2="49.1022" y2="13.6137">
		<stop  offset="0" style="stop-color:#F0C837"/>
		<stop  offset="0.1338" style="stop-color:#C09632"/>
		<stop  offset="0.6674" style="stop-color:#F6E05B"/>
		<stop  offset="0.7585" style="stop-color:#EEE07F"/>
		<stop  offset="1" style="stop-color:#B8A629"/>
	</linearGradient>
	<path class="st0" d="M46.3,0l-45,26C1.2,26.2,1,26.3,1,26.4s0,0.3,0,0.5c0.1,0.1,0.3,0.3,0.4,0.3c0.1,0,0.3,0,0.5,0L49.1,0H46.3z"
		/>
	<linearGradient id="SVGID_2_" gradientUnits="userSpaceOnUse" x1="234.2277" y1="94.5634" x2="1263.2106" y2="94.5634">
		<stop  offset="0" style="stop-color:#F0C837"/>
		<stop  offset="0.1338" style="stop-color:#C09632"/>
		<stop  offset="0.6674" style="stop-color:#F6E05B"/>
		<stop  offset="0.7585" style="stop-color:#EEE07F"/>
		<stop  offset="1" style="stop-color:#B8A629"/>
	</linearGradient>
	<path class="st1" d="M1259.3,0l-43,25.1V0h-1v26.1L1170.5,0h-2.6l-44.7,26.1l45.5-26l45.5,26l-45.5,26l-45.5-26V0h-2v26.1l-45.5,26
		l-45.5-26l45.5-26l45.5,26L1076.5,0h-3.2l-43.8,25.3V0h-1.3v26.1l-45.5,26l-45.5-26l45.5-26l45.5,26L983.5,0h-4.7l-43.6,25.1
		L891.6,0H888l-44.7,26.1l45.5-26l45.5,26l-45.5,26l-45.5-26V0h-2v26.1l-45.5,26l-45.5-26l45.5-26l45.5,26L796.5,0H794l-44.7,26.1V0
		h-1.3v25.1L704.1,0H701l-44.7,26.1l45.5-26l45.5,26l-45.5,26l-45.5-26V0h-1.3v25.1L611.1,0h-3l-45.5,26.1L517.1,0h-2.6l-45.5,26.1
		L423.4,0h-3.7l-44,25.1L331.8,0h-6l-43.6,25.1L238.5,0h-4.3l0.4,0.2v53.9l47.2,27.3l0.1,0.1l47.2-27.3l0.1-0.1V0.9L375,27.4
		l0.3,0.1l46.1-26.6v53.2l47.1,27.1c0.3,0.1,0.5,0.1,0.8-0.1l0.1-0.1v-0.1v-0.1V27.1l45.5-26.2v52.8c0,0.4,0.3,0.7,0.7,0.7
		c0.4,0,0.7-0.3,0.7-0.7V0.9l45.5,26.2V81l46.7,27v53.6c0,0.4,0.3,0.7,0.7,0.7c0.4,0,0.7-0.3,0.7-0.7v-52.8l45.7,26.5l0.3,0.1
		l93.5-53.9l45.5,26.2l-46,26.1c-0.3,0.1-0.4,0.5-0.3,0.8c0.1,0.1,0.3,0.3,0.4,0.3c0.1,0,0.3,0,0.5,0l93.1-53.7l46.1,26.6v53.6
		c0,0.4,0.3,0.7,0.7,0.7s0.7-0.3,0.7-0.7V53.8l45.5-26.2v53.2l46.7,27v53.9L1029,189l0.1,0.1l47.2-27.3l0.1-0.1v-53.2l45.7,26.5
		l0.3-1.2l-45.5-26.2l45.5-26.2l46.7,26.9l47.3-27.3l0.1-0.1V27l46.5-26.9l0.1-0.1H1259.3z M281.3,79.1l-45-26.3V0.1l45,26.3V79.1z
		 M328.3,52.8l-45,26.3V26.4l45-26.3V52.8z M468.3,79.1l-45-26.3V0.1l45,26.3V79.1z M608.3,106.1l-45-26.3V27.1l45,26.3V106.1z
		 M608.8,52.1l-45.5-26l45.5-26l45.5,26L608.8,52.1z M655.8,133.1l-45.5-26l45.5-26l45.5,26L655.8,133.1z M701.3,106.1l-45.9-26.4
		l-0.1-0.1l-46,26.6V53.7l46-26.6l46,26.6V106.1z M748.3,79.8l-45,26.3V53.4l45-26.3V79.8z M794.3,106.1l-45-26.3V27.1l45,26.3
		V106.1z M841.3,79.8l-45,26.3V53.4l45-26.3V79.8z M888.3,106.1l-45-26.3V27.1l45,26.3V106.1z M981.3,106.1l-45-26.3V27.1l45,26.3
		V106.1z M1028.3,187.1l-45-26.3v-52.7l45,26.3V187.1z M1075.3,160.8l-45,26.3v-52.7l45-26.3V160.8z M1075.3,106.6h-0.1l-46,26.5
		L983.8,107l45.6-26.4c0.3-0.1,0.4-0.5,0.3-0.8c-0.1-0.3-0.5-0.4-0.8-0.3L983.3,106V53.6l46-26.5l46,26.5V106.6z M1121.3,79.8
		l-45,26.3V53.4l45-26.3V79.8z M1168.3,106.1l-45-26.3V27.1l45,26.3V106.1z M1215.3,79.8l-45,26.3V53.4l45-26.3V79.8z"/>
	<linearGradient id="SVGID_3_" gradientUnits="userSpaceOnUse" x1="141.0001" y1="27.1815" x2="142.468" y2="27.1815">
		<stop  offset="0" style="stop-color:#F0C837"/>
		<stop  offset="0.1338" style="stop-color:#C09632"/>
		<stop  offset="0.6674" style="stop-color:#F6E05B"/>
		<stop  offset="0.7585" style="stop-color:#EEE07F"/>
		<stop  offset="1" style="stop-color:#B8A629"/>
	</linearGradient>
	<path class="st2" d="M141,0l0.2,0.1v53.6c0,0.4,0.3,0.7,0.7,0.7c0.4,0,0.7-0.3,0.7-0.7V0H141z"/>
</g>
</svg>
